<svg xmlns="http://www.w3.org/2000/svg" width="1200" height="320" viewBox="0 0 1200 320" role="img" aria-labelledby="title desc">
<title id="title">Grosz</title><desc id="desc">SWIR project banner for the Grosz visual identity and branding assets repository.</desc>
<defs><linearGradient id="bg" x1="0" y1="0" x2="1" y2="1"><stop stop-color="#02050A"/><stop offset=".55" stop-color="#06101A"/><stop offset="1" stop-color="#02050A"/></linearGradient><linearGradient id="cyan" x1="0" y1="0" x2="1" y2="0"><stop stop-color="#0088FF"/><stop offset=".5" stop-color="#62E5FF"/><stop offset="1" stop-color="#0088FF"/></linearGradient><pattern id="grid" width="40" height="40" patternUnits="userSpaceOnUse"><path d="M40 0H0V40" fill="none" stroke="#62E5FF" stroke-opacity=".055"/></pattern></defs>
<rect width="1200" height="320" rx="26" fill="url(#bg)"/><rect x="1" y="1" width="1198" height="318" rx="25" fill="none" stroke="#62E5FF" stroke-opacity=".25"/><rect width="1200" height="320" rx="26" fill="url(#grid)"/>
<g transform="translate(76 72)"><circle cx="78" cy="78" r="72" fill="#07111C" stroke="url(#cyan)" stroke-width="7"/><circle cx="78" cy="78" r="51" fill="none" stroke="#62E5FF" stroke-opacity=".25"/><path d="M106 50c-8-8-18-12-31-12-24 0-39 17-39 40s15 40 39 40c14 0 26-5 34-14V83H76" fill="none" stroke="#62E5FF" stroke-width="10" stroke-linecap="round" stroke-linejoin="round"/></g>
<text x="275" y="70" font-family="Segoe UI,Arial,sans-serif" font-size="18" font-weight="700" letter-spacing="4" fill="#62E5FF">SWIR PROJECT</text><text x="275" y="143" font-family="Segoe UI,Arial,sans-serif" font-size="62" font-weight="800" fill="#F4FAFF">Grosz</text><text x="277" y="190" font-family="Segoe UI,Arial,sans-serif" font-size="23" font-weight="500" fill="#B8D2E0">Versioned visual identity and branding assets</text><text x="277" y="232" font-family="Segoe UI,Arial,sans-serif" font-size="16" font-weight="650" letter-spacing="1.5" fill="#62E5FF">VISUAL IDENTITY · BRANDING · ASSET ARCHIVE</text>
<path d="M0 266 C180 220 260 304 448 260 S760 220 930 254 S1080 283 1200 235" fill="none" stroke="url(#cyan)" stroke-opacity=".24" stroke-width="2"/>
</svg>